HIERARCHY
ROOT Hips
{
	OFFSET 0.000000 0.000000 0.000000
	CHANNELS 6 Xposition Yposition Zposition Zrotation Yrotation Xrotation 
	JOINT LHipJoint
	{
		OFFSET 0.000000 0.000000 0.000000
		CHANNELS 3 Zrotation Yrotation Xrotation
		JOINT LeftUpLeg
		{
			OFFSET 1.363060 -1.794630 0.839290
			CHANNELS 3 Zrotation Yrotation Xrotation
			JOINT LeftLeg
			{
				OFFSET 2.448110 -6.726130 0.000000
				CHANNELS 3 Zrotation Yrotation Xrotation
				JOINT LeftFoot
				{
					OFFSET 2.562200 -7.039590 0.000000
					CHANNELS 3 Zrotation Yrotation Xrotation
					JOINT LeftToeBase
					{
						OFFSET 0.157640 -0.433110 2.322550
						CHANNELS 3 Zrotation Yrotation Xrotation
						End Site
						{
							OFFSET 0.000000 0.000000 0.000000
						}
					}
				}
			}
		}
	}
	JOINT RHipJoint
	{
		OFFSET 0.000000 0.000000 0.000000
		CHANNELS 3 Zrotation Yrotation Xrotation
		JOINT RightUpLeg
		{
			OFFSET -1.305520 -1.794630 0.839290
			CHANNELS 3 Zrotation Yrotation Xrotation
			JOINT RightLeg
			{
				OFFSET -2.542530 -6.985550 0.000000
				CHANNELS 3 Zrotation Yrotation Xrotation
				JOINT RightFoot
				{
					OFFSET -2.568260 -7.056230 0.000000
					CHANNELS 3 Zrotation Yrotation Xrotation
					JOINT RightToeBase
					{
						OFFSET -0.164730 -0.452590 2.363150
						CHANNELS 3 Zrotation Yrotation Xrotation
						End Site
						{
							OFFSET 0.000000 0.000000 0.000000
						}
					}
				}
			}
		}
	}
}
MOTION
Frames: 22
Frame Time: 0.008333
0.487150 16.711734 1.473462 15.910563 43.184546 24.596402 -10.915030 3.046896 -3.348892 -3.931372 20.746638 -21.937428 -0.201737 2.976108 53.698943 1.733954 4.117276 26.093031 1.312400 0.000000 -61.420300 9.377121 0.353933 -0.243989 17.618335 -8.430924 -36.380568 2.311273 -0.020898 20.916660 -4.984826 -14.880231 -23.542319 -176.487500 -0.000000 -16.018899
0.539120 16.716580 1.593832 15.452944 41.870190 24.234084 -10.837383 2.888604 -3.332910 -3.835879 20.111025 -22.900698 -0.073835 3.050801 55.567322 1.911078 6.282243 25.934166 2.407500 0.000000 -58.417600 9.405683 0.303051 -0.173926 17.663510 -7.713682 -35.542364 2.305318 0.016825 20.859268 -4.918167 -14.512934 -23.883410 -176.423900 -0.000000 -16.654200
0.587833 16.723442 1.716318 15.057069 40.504647 23.965962 -10.736764 2.737400 -3.294699 -3.841019 19.331316 -23.851787 0.048532 3.113233 57.251060 2.090393 8.577234 25.456306 3.550800 -0.000000 -55.791500 9.455463 0.270693 -0.064242 17.611520 -6.867482 -34.654418 2.280793 0.075998 20.642668 -4.866347 -14.212440 -24.188093 -176.366300 -0.000000 -17.218899
0.633903 16.732632 1.840448 14.710909 39.102660 23.781309 -10.619967 2.593415 -3.228927 -3.919444 18.404241 -24.788407 0.164186 3.161528 58.737164 2.269088 10.873575 24.723696 4.654301 0.000000 -53.553200 9.520442 0.253561 0.079274 17.481195 -5.915246 -33.736044 2.241915 0.152753 20.284680 -4.822107 -13.956701 -24.436335 -176.322600 -0.000000 -17.697600
0.677908 16.744371 1.965750 14.399499 37.676479 23.666242 -10.493462 2.456358 -3.132149 -4.038845 17.335561 -25.706797 0.271414 3.194572 60.015151 2.442284 13.049782 23.808156 5.643200 -0.000000 -51.706000 9.594237 0.247426 0.249614 17.295183 -4.883668 -32.801156 2.193532 0.243671 19.800197 -4.778289 -13.722656 -24.611347 -176.300299 0.000000 -18.076400
0.720240 16.758747 2.091761 14.108158 36.235547 23.604588 -10.363143 2.325659 -3.004061 -4.165834 16.142622 -26.602510 0.368602 3.212529 61.080148 2.602588 14.995903 22.770333 6.457900 -0.000000 -50.094300 9.670838 0.247615 0.438914 17.076395 -3.802022 -31.857667 2.140667 0.345660 19.201193 -4.728295 -13.488481 -24.699708 -176.305600 -0.000000 -18.345300
0.761159 16.775674 2.218177 13.824983 34.785185 23.581062 -10.233019 2.200539 -2.845646 -4.271275 14.847165 -27.467308 0.454158 3.214916 61.922278 2.744093 16.640118 21.695484 7.074500 -0.000000 -48.902900 9.746082 0.250216 0.638693 16.844393 -2.701228 -30.907648 2.088183 0.456111 18.497280 -4.665909 -13.232438 -24.692842 -176.343600 0.000000 -18.499600
0.800849 16.794862 2.344743 13.540897 33.328117 23.579884 -10.106555 2.081099 -2.662137 -4.330992 13.485151 -28.295391 0.527259 3.203723 62.545708 2.858302 17.919982 20.612513 7.472699 0.000000 -47.845300 9.816839 0.251149 0.840889 16.616169 -1.611600 -29.946638 2.040573 0.572629 17.696874 -4.585769 -12.935114 -24.586461 -176.417700 0.000000 -18.540500
0.839333 16.815841 2.471347 13.251489 31.863721 23.587752 -9.985140 1.967711 -2.459708 -4.332410 12.094034 -29.079945 0.587236 3.180313 62.951879 2.939781 18.812184 19.554350 7.658500 -0.000000 -46.837100 9.882469 0.247564 1.038225 16.402207 -0.561581 -28.966965 2.001355 0.693065 16.808245 -4.483442 -12.579565 -24.380955 -176.528900 0.000000 -18.474400
0.876504 16.838021 2.598048 12.957711 30.389054 23.594785 -9.867851 1.860943 -2.244391 -4.275305 10.707711 -29.813529 0.633546 3.145029 63.139491 2.987322 19.334673 18.562779 7.664500 0.000000 -46.030000 9.945156 0.238130 1.224433 16.205800 0.422513 -27.961176 1.972870 0.815246 15.841943 -4.355319 -12.150573 -24.081328 -176.676400 -0.000000 -18.310800
0.912210 16.860715 2.725025 12.663962 28.899955 23.594255 -9.753195 1.761918 -2.023028 -4.169364 9.360879 -30.492920 0.665977 3.099051 63.115252 3.001340 19.522989 17.645106 7.523900 0.000001 -45.392800 10.008186 0.222062 1.395569 16.024937 1.320491 -26.923159 1.956183 0.937118 14.810289 -4.199159 -11.636758 -23.695689 -176.857200 0.000000 -18.062000
0.946324 16.883187 2.852417 12.376904 27.390783 23.581327 -9.639571 1.671920 -1.803270 -4.033754 8.087346 -31.120505 0.684551 3.044667 62.896366 2.983198 19.421112 16.765855 7.260100 -0.000000 -44.612800 10.075404 0.199010 1.549407 15.853067 2.117519 -25.850470 1.951314 1.056355 13.730267 -4.014224 -11.030029 -23.237271 -177.066200 -0.000000 -17.742600
0.978778 16.904786 2.980534 12.103777 25.856492 23.555935 -9.524265 1.591413 -1.588568 -3.891709 6.904385 -31.700181 0.689229 2.982050 62.491748 2.939849 19.107804 15.935011 6.921900 0.000000 -43.907700 10.151274 0.169904 1.686095 15.679640 2.807149 -24.746643 1.956936 1.171056 12.620403 -3.801475 -10.327455 -22.720192 -177.297100 -0.000000 -17.367600
1.009515 16.924940 3.109578 11.851696 24.292970 23.519870 -9.405251 1.520666 -1.382000 -3.767871 5.825168 -32.241391 0.680240 2.912398 61.919060 2.878081 18.656578 15.132443 6.543200 0.000000 -43.260000 10.239365 0.135806 1.807397 15.492586 3.389358 -23.620394 1.971083 1.279394 11.501606 -3.563403 -9.529872 -22.161201 -177.542500 0.000000 -16.953400
1.038698 16.943218 3.239732 11.625116 22.697905 23.475894 -9.281549 1.459139 -1.184911 -3.682519 4.855569 -32.757969 0.657974 2.837153 61.199324 2.804956 18.136312 14.334159 6.151401 -0.000000 -42.651000 10.341321 0.097652 1.916513 15.281492 3.871628 -22.484397 1.991503 1.379851 10.395704 -3.304136 -8.643155 -21.577943 -177.794500 0.000000 -16.517400
1.066484 16.959320 3.371011 11.426183 21.071366 23.427235 -9.152853 1.405612 -0.997678 -3.650438 3.995406 -33.265576 0.622879 2.757920 60.354862 2.727272 17.607277 13.516519 5.767000 0.000000 -42.050300 10.457136 0.056531 2.017056 15.037983 4.267262 -21.353590 2.015861 1.471209 9.324249 -3.028977 -7.677299 -20.988199 -178.046000 0.000000 -16.076200
1.093220 16.973163 3.503481 11.253866 19.417665 23.377583 -9.019641 1.358316 -0.818657 -3.678068 3.236882 -33.780409 0.575533 2.675921 59.403874 2.651447 17.118639 12.671403 5.407000 0.000000 -41.535200 10.584863 0.013460 2.112913 14.757388 4.593490 -20.242582 2.041987 1.553004 8.304306 -2.744061 -6.647027 -20.406497 -178.290800 0.000000 -15.646200
1.119202 16.984734 3.636925 11.104842 17.741887 23.328801 -8.883292 1.315123 -0.646813 -3.764308 2.573176 -34.317854 0.516369 2.592827 58.364548 2.582232 16.701288 11.789625 5.078800 0.000000 -41.112000 10.720730 -0.030610 2.207230 14.439501 4.870268 -19.164857 2.068274 1.624972 7.351833 -2.455678 -5.568788 -19.846415 -178.524400 0.000001 -15.240500
1.144783 16.994160 3.771222 10.974476 16.055324 23.282312 -8.745555 1.273636 -0.480606 -3.902114 1.993832 -34.890388 0.445844 2.509926 57.250526 2.522989 16.370486 10.867897 4.784100 0.000000 -40.737000 10.860037 -0.075065 2.301775 14.088239 5.115465 -18.129981 2.093489 1.687132 6.478342 -2.170054 -4.462298 -19.317113 -178.743700 0.000000 -14.865000
1.170271 17.001558 3.906117 10.857701 14.369692 23.237984 -8.608362 1.231661 -0.318976 -4.080462 1.489988 -35.506495 0.364325 2.428251 56.070010 2.475811 16.128197 9.915059 4.521501 0.000000 -40.393800 10.997681 -0.119273 2.396773 13.710763 5.344196 -17.144508 2.117040 1.739531 5.693884 -1.892447 -3.345907 -18.825265 -178.947099 0.000000 -14.518900
1.195918 17.007114 4.041392 10.751369 12.701277 23.195592 -8.473099 1.187757 -0.159942 -4.289511 1.049121 -36.170274 0.272412 2.348071 54.824983 2.442075 15.970022 8.950164 4.289900 -0.000000 -40.033600 11.129751 -0.162597 2.489692 13.315156 5.559026 -16.215609 2.139397 1.781721 5.012077 -1.626078 -2.230548 -18.377213 -179.134801 -0.000000 -14.206400
1.221975 17.011011 4.176830 10.640842 11.061122 23.149744 -8.344034 1.139054 -0.007220 -4.504480 0.678392 -36.874820 0.170375 2.270228 53.505723 2.420003 15.868649 8.011452 4.085900 -0.000000 -39.870800 11.246449 -0.205592 2.586721 12.918141 5.813616 -15.310467 2.156351 1.818503 4.386171 -1.381444 -1.177636 -17.954077 -179.303200 0.000000 -13.900300
